<?xml version="1.0" encoding="UTF-8" standalone="no"?>
<!-- Created with Inkscape (http://www.inkscape.org/) -->

<svg
   xmlns:dc="http://purl.org/dc/elements/1.1/"
   xmlns:cc="http://creativecommons.org/ns#"
   xmlns:rdf="http://www.w3.org/1999/02/22-rdf-syntax-ns#"
   xmlns:svg="http://www.w3.org/2000/svg"
   xmlns="http://www.w3.org/2000/svg"
   xmlns:sodipodi="http://sodipodi.sourceforge.net/DTD/sodipodi-0.dtd"
   xmlns:inkscape="http://www.inkscape.org/namespaces/inkscape"
   width="15.385923mm"
   height="9.2018576mm"
   viewBox="0 0 15.385923 9.2018577"
   version="1.1"
   id="svg8"
   inkscape:version="0.92.1 r15371"
   sodipodi:docname="AlturaTopografica.svg">
  <defs
     id="defs2">
    <inkscape:path-effect
       effect="bspline"
       id="path-effect4575"
       is_visible="true"
       weight="33.333333"
       steps="2"
       helper_size="0"
       apply_no_weight="true"
       apply_with_weight="true"
       only_selected="false" />
    <inkscape:path-effect
       effect="bspline"
       id="path-effect4571"
       is_visible="true"
       weight="33.333333"
       steps="2"
       helper_size="0"
       apply_no_weight="true"
       apply_with_weight="true"
       only_selected="false" />
    <inkscape:path-effect
       effect="bspline"
       id="path-effect4575-8"
       is_visible="true"
       weight="33.333333"
       steps="2"
       helper_size="0"
       apply_no_weight="true"
       apply_with_weight="true"
       only_selected="false" />
    <inkscape:path-effect
       effect="bspline"
       id="path-effect4571-8"
       is_visible="true"
       weight="33.333333"
       steps="2"
       helper_size="0"
       apply_no_weight="true"
       apply_with_weight="true"
       only_selected="false" />
  </defs>
  <sodipodi:namedview
     id="base"
     pagecolor="#ffffff"
     bordercolor="#666666"
     borderopacity="1.0"
     inkscape:pageopacity="0.0"
     inkscape:pageshadow="2"
     inkscape:zoom="0.35"
     inkscape:cx="-114.61151"
     inkscape:cy="-165.55125"
     inkscape:document-units="mm"
     inkscape:current-layer="layer1"
     showgrid="false"
     inkscape:snap-global="false"
     fit-margin-top="0"
     fit-margin-left="0"
     fit-margin-right="0"
     fit-margin-bottom="0"
     inkscape:window-width="1366"
     inkscape:window-height="705"
     inkscape:window-x="-8"
     inkscape:window-y="-8"
     inkscape:window-maximized="1" />
  <metadata
     id="metadata5">
    <rdf:RDF>
      <cc:Work
         rdf:about="">
        <dc:format>image/svg+xml</dc:format>
        <dc:type
           rdf:resource="http://purl.org/dc/dcmitype/StillImage" />
        <dc:title></dc:title>
      </cc:Work>
    </rdf:RDF>
  </metadata>
  <g
     inkscape:label="Capa 1"
     inkscape:groupmode="layer"
     id="layer1"
     transform="translate(126.15785,-95.829362)">
    <g
       id="g4717"
       transform="matrix(0.3322397,0,0,0.2750233,-84.254875,69.483149)">
      <path
         d="m -118.65397,107.12989 a 3.2486677,3.2486677 0 0 1 -2.70669,3.69094 3.2486677,3.2486677 0 0 1 -3.71116,-2.6789 3.2486677,3.2486677 0 0 1 2.65096,-3.73117 3.2486677,3.2486677 0 0 1 3.75097,2.62287"
         sodipodi:open="true"
         sodipodi:end="6.1042542"
         sodipodi:start="6.1342913"
         sodipodi:ry="3.2486677"
         sodipodi:rx="3.2486677"
         sodipodi:cy="107.61182"
         sodipodi:cx="-121.86669"
         sodipodi:type="arc"
         id="path4647"
         style="opacity:1;fill:#dfd40e;fill-opacity:1;stroke:#ffed39;stroke-width:2.0150001;stroke-linejoin:round;stroke-miterlimit:4;stroke-dasharray:none;stroke-dashoffset:0;stroke-opacity:0.96482412" />
      <path
         d="m -107.3147,116.20132 a 3.2486677,3.2486677 0 0 1 -2.70669,3.69094 3.2486677,3.2486677 0 0 1 -3.71115,-2.6789 3.2486677,3.2486677 0 0 1 2.65095,-3.73117 3.2486677,3.2486677 0 0 1 3.75097,2.62286"
         sodipodi:open="true"
         sodipodi:end="6.1042542"
         sodipodi:start="6.1342913"
         sodipodi:ry="3.2486677"
         sodipodi:rx="3.2486677"
         sodipodi:cy="116.68324"
         sodipodi:cx="-110.52742"
         sodipodi:type="arc"
         id="path4647-7"
         style="opacity:1;fill:#dfd40e;fill-opacity:1;stroke:#ffed39;stroke-width:2.0150001;stroke-linejoin:round;stroke-miterlimit:4;stroke-dasharray:none;stroke-dashoffset:0;stroke-opacity:0.96482412" />
      <path
         d="m -99.755179,99.57037 a 3.2486677,3.2486677 0 0 1 -2.706691,3.69094 3.2486677,3.2486677 0 0 1 -3.71116,-2.6789 3.2486677,3.2486677 0 0 1 2.65096,-3.731171 3.2486677,3.2486677 0 0 1 3.750968,2.622862"
         sodipodi:open="true"
         sodipodi:end="6.1042542"
         sodipodi:start="6.1342913"
         sodipodi:ry="3.2486677"
         sodipodi:rx="3.2486677"
         sodipodi:cy="100.05229"
         sodipodi:cx="-102.9679"
         sodipodi:type="arc"
         id="path4647-7-7"
         style="opacity:1;fill:#dfd40e;fill-opacity:1;stroke:#ffed39;stroke-width:2.0150001;stroke-linejoin:round;stroke-miterlimit:4;stroke-dasharray:none;stroke-dashoffset:0;stroke-opacity:0.96482412" />
      <path
         d="m -93.707557,112.42156 a 3.2486677,3.2486677 0 0 1 -2.70669,3.69093 3.2486677,3.2486677 0 0 1 -3.711153,-2.67889 3.2486677,3.2486677 0 0 1 2.65095,-3.73117 3.2486677,3.2486677 0 0 1 3.750971,2.62286"
         sodipodi:open="true"
         sodipodi:end="6.1042542"
         sodipodi:start="6.1342913"
         sodipodi:ry="3.2486677"
         sodipodi:rx="3.2486677"
         sodipodi:cy="112.90348"
         sodipodi:cx="-96.92028"
         sodipodi:type="arc"
         id="path4647-7-6"
         style="opacity:1;fill:#dfd40e;fill-opacity:1;stroke:#ffed39;stroke-width:2.0150001;stroke-linejoin:round;stroke-miterlimit:4;stroke-dasharray:none;stroke-dashoffset:0;stroke-opacity:0.96482412" />
      <path
         d="m -107.3147,106.37393 a 3.2486677,3.2486677 0 0 1 -2.70669,3.69093 3.2486677,3.2486677 0 0 1 -3.71115,-2.67889 3.2486677,3.2486677 0 0 1 2.65095,-3.73117 3.2486677,3.2486677 0 0 1 3.75097,2.62286"
         sodipodi:open="true"
         sodipodi:end="6.1042542"
         sodipodi:start="6.1342913"
         sodipodi:ry="3.2486677"
         sodipodi:rx="3.2486677"
         sodipodi:cy="106.85585"
         sodipodi:cx="-110.52742"
         sodipodi:type="arc"
         id="path4647-7-8"
         style="opacity:1;fill:#dfd40e;fill-opacity:1;stroke:#ffed39;stroke-width:2.0150001;stroke-linejoin:round;stroke-miterlimit:4;stroke-dasharray:none;stroke-dashoffset:0;stroke-opacity:0.96482412" />
      <path
         d="m -86.903991,103.35012 a 3.2486677,3.2486677 0 0 1 -2.70669,3.69093 3.2486677,3.2486677 0 0 1 -3.711157,-2.67889 3.2486677,3.2486677 0 0 1 2.650954,-3.73117 3.2486677,3.2486677 0 0 1 3.750971,2.62286"
         sodipodi:open="true"
         sodipodi:end="6.1042542"
         sodipodi:start="6.1342913"
         sodipodi:ry="3.2486677"
         sodipodi:rx="3.2486677"
         sodipodi:cy="103.83204"
         sodipodi:cx="-90.116714"
         sodipodi:type="arc"
         id="path4647-7-0"
         style="opacity:1;fill:#dfd40e;fill-opacity:1;stroke:#ffed39;stroke-width:2.0150001;stroke-linejoin:round;stroke-miterlimit:4;stroke-dasharray:none;stroke-dashoffset:0;stroke-opacity:0.96482412" />
      <path
         d="m -96.731361,124.51679 a 3.2486677,3.2486677 0 0 1 -2.70669,3.69093 3.2486677,3.2486677 0 0 1 -3.711159,-2.67889 3.2486677,3.2486677 0 0 1 2.65096,-3.73117 3.2486677,3.2486677 0 0 1 3.750967,2.62286"
         sodipodi:open="true"
         sodipodi:end="6.1042542"
         sodipodi:start="6.1342913"
         sodipodi:ry="3.2486677"
         sodipodi:rx="3.2486677"
         sodipodi:cy="124.99871"
         sodipodi:cx="-99.944084"
         sodipodi:type="arc"
         id="path4647-7-84"
         style="opacity:1;fill:#dfd40e;fill-opacity:1;stroke:#ffed39;stroke-width:2.0150001;stroke-linejoin:round;stroke-miterlimit:4;stroke-dasharray:none;stroke-dashoffset:0;stroke-opacity:0.96482412" />
      <path
         d="m -80.856361,115.44535 a 3.2486677,3.2486677 0 0 1 -2.70669,3.69094 3.2486677,3.2486677 0 0 1 -3.711157,-2.6789 3.2486677,3.2486677 0 0 1 2.650955,-3.73117 3.2486677,3.2486677 0 0 1 3.75097,2.62287"
         sodipodi:open="true"
         sodipodi:end="6.1042542"
         sodipodi:start="6.1342913"
         sodipodi:ry="3.2486677"
         sodipodi:rx="3.2486677"
         sodipodi:cy="115.92728"
         sodipodi:cx="-84.069084"
         sodipodi:type="arc"
         id="path4647-7-72"
         style="opacity:1;fill:#dfd40e;fill-opacity:1;stroke:#ffed39;stroke-width:2.0150001;stroke-linejoin:round;stroke-miterlimit:4;stroke-dasharray:none;stroke-dashoffset:0;stroke-opacity:0.96482412" />
    </g>
  </g>
</svg>
