<?xml version="1.0" encoding="UTF-8" standalone="no"?>
<svg
   xmlns:dc="http://purl.org/dc/elements/1.1/"
   xmlns:cc="http://creativecommons.org/ns#"
   xmlns:rdf="http://www.w3.org/1999/02/22-rdf-syntax-ns#"
   xmlns:svg="http://www.w3.org/2000/svg"
   xmlns="http://www.w3.org/2000/svg"
   xmlns:sodipodi="http://sodipodi.sourceforge.net/DTD/sodipodi-0.dtd"
   xmlns:inkscape="http://www.inkscape.org/namespaces/inkscape"
   viewBox="0 0 128.58328 79.839004"
   version="1.1"
   id="svg6281"
   sodipodi:docname="escuela_2.svg"
   inkscape:version="0.92.1 r15371"
   width="128.58328"
   height="79.839005">
  <metadata
     id="metadata6287">
    <rdf:RDF>
      <cc:Work
         rdf:about="">
        <dc:format>image/svg+xml</dc:format>
        <dc:type
           rdf:resource="http://purl.org/dc/dcmitype/StillImage" />
        <dc:title></dc:title>
      </cc:Work>
    </rdf:RDF>
  </metadata>
  <defs
     id="defs6285" />
  <sodipodi:namedview
     pagecolor="#ffffff"
     bordercolor="#666666"
     borderopacity="1"
     objecttolerance="10"
     gridtolerance="10"
     guidetolerance="10"
     inkscape:pageopacity="0"
     inkscape:pageshadow="2"
     inkscape:window-width="1366"
     inkscape:window-height="705"
     id="namedview6283"
     showgrid="false"
     inkscape:zoom="0.12291667"
     inkscape:cx="2140.1838"
     inkscape:cy="-1265.8431"
     inkscape:window-x="-8"
     inkscape:window-y="-8"
     inkscape:window-maximized="1"
     inkscape:current-layer="svg6281"
     fit-margin-top="0"
     fit-margin-left="0"
     fit-margin-right="0"
     fit-margin-bottom="0"
     inkscape:document-units="mm" />
  <style
     id="style6235">
        .st0{fill:#fff}.st1{fill:none;stroke:#231f20;stroke-width:50;stroke-linecap:round;stroke-linejoin:round;stroke-miterlimit:10}
    </style>
  <text
     xml:space="preserve"
     style="font-style:normal;font-weight:normal;font-size:40px;line-height:1.25;font-family:sans-serif;letter-spacing:0px;word-spacing:0px;fill:#000000;fill-opacity:1;stroke:none"
     x="1050.0145"
     y="328.73297"
     id="text7523"><tspan
       sodipodi:role="line"
       id="tspan7521"
       x="1050.0145"
       y="365.2262"></tspan></text>
  <g
     id="g7565"
     transform="matrix(0.04718324,0,0,0.09822162,165.92212,39.667132)">
    <g
       transform="matrix(0.55035468,0,0,0.51754549,-3622.6522,-484.64025)"
       id="g7519">
      <path
         style="fill:#ffffff"
         inkscape:connector-curvature="0"
         class="st0"
         d="m 1263.3,997 v 84.9 h -601 V 997 H 376.4 v 706 h 507 v -175.6 c 0,-43.9 35.6,-79.4 79.4,-79.4 43.9,0 79.4,35.6 79.4,79.4 V 1703 h 507 V 997 Z M 582.8,1563 H 482.6 v -140.3 h 100.2 z m 0,-227.9 H 482.6 V 1194.8 H 582.8 Z M 755.2,1563 H 655 v -140.3 h 100.2 z m 0,-227.9 H 655 v -140.3 h 100.2 z m 172.4,0 H 827.4 v -140.3 h 100.2 z m 172.3,0 H 999.7 v -140.3 h 100.2 z m 172.4,227.9 h -100.2 v -140.3 h 100.2 z m 0,-227.9 h -100.2 v -140.3 h 100.2 z m 172.4,227.9 h -100.2 v -140.3 h 100.2 z m 0,-227.9 h -100.2 v -140.3 h 100.2 z"
         id="Layer_10" />
      <path
         style="fill:#ffffff"
         inkscape:connector-curvature="0"
         class="st0"
         d="M 482.6,1335.2 H 582.8 V 1194.9 H 482.6 Z m 172.4,0 H 755.2 V 1194.9 H 655 Z m 172.4,0 H 927.6 V 1194.9 H 827.4 Z m 172.3,0 h 100.2 V 1194.9 H 999.7 Z m 172.4,0 h 100.2 v -140.3 h -100.2 z m 172.4,-140.4 v 140.3 h 100.2 V 1194.8 Z M 482.6,1563 H 582.8 V 1422.7 H 482.6 Z m 172.4,0 H 755.2 V 1422.7 H 655 Z m 517.1,0 h 100.2 v -140.3 h -100.2 z m 172.4,0 h 100.2 v -140.3 h -100.2 z"
         id="Layer_11" />
      <path
         style="fill:#ffffff"
         inkscape:connector-curvature="0"
         class="st0"
         d="m 962.8,1448 c -43.9,0 -79.4,35.6 -79.4,79.4 V 1703 h 158.8 v -175.6 c 0,-43.8 -35.5,-79.4 -79.4,-79.4 z"
         id="Layer_12" />
      <path
         style="fill:#ffffff"
         inkscape:connector-curvature="0"
         class="st0"
         d="m 662.3,898.8 v 183.1 h 601 V 898.8 Z"
         id="Layer_13" />
      <path
         style="fill:#ffffff"
         inkscape:connector-curvature="0"
         class="st0"
         d="M 962.8,217 638.1,377.3 h 649.4 z m 743.1,780 -528.3,-258.5 v 0.1 H 748 v -0.1 L 219.8,997 h 442.5 v -98.2 h 601 V 997 Z"
         id="Layer_14" />
      <path
         style="fill:#ffffff"
         inkscape:connector-curvature="0"
         class="st0"
         d="m 748,377.3 v 361.3 h 429.5 V 377.3 Z m 248.6,259.6 c 0,18.7 -15.1,33.8 -33.8,33.8 -18.7,0 -33.8,-15.1 -33.8,-33.8 0,-9.7 9.1,-25.3 17.9,-38.1 H 835.1 c 0,0 47.1,-50.7 47.1,-128.4 0,-77.8 80.6,-80.6 80.6,-80.6 0,0 80.6,2.9 80.6,80.6 0,77.7 47.2,128.4 47.2,128.4 H 978.8 c 8.7,12.8 17.8,28.4 17.8,38.1 z"
         id="Layer_15" />
      <path
         style="fill:#ffffff"
         inkscape:connector-curvature="0"
         class="st0"
         d="m 1090.5,598.8 c 0,0 -47.1,-50.7 -47.1,-128.4 0,-77.7 -80.6,-80.6 -80.6,-80.6 0,0 -80.6,2.9 -80.6,80.6 0,77.7 -47.1,128.4 -47.1,128.4 h 111.8 c -8.8,12.8 -17.8,28.4 -17.8,38.1 0,18.7 15.1,33.8 33.8,33.8 18.7,0 33.8,-15.1 33.8,-33.8 0,-9.7 -9.1,-25.3 -17.8,-38.1 z"
         id="Layer_17" />
      <g
         id="STROKES"
         style="fill:#a50000;fill-opacity:1;stroke:#61781b;stroke-opacity:1">
        <path
           inkscape:connector-curvature="0"
           class="st1"
           d="m 1705.9,997 h -442.6 v -98.2 h -601 V 997 H 219.8 L 748,738.5 v 0.1 h 429.6 v -0.1 z"
           id="path6244"
           style="fill:#a50000;fill-opacity:1;stroke:#61781b;stroke-width:50;stroke-linecap:round;stroke-linejoin:round;stroke-miterlimit:10;stroke-opacity:1" />
        <path
           inkscape:connector-curvature="0"
           class="st1"
           d="M 1287.5,377.3 H 638.1 L 962.8,216.9 Z"
           id="path6246"
           style="fill:#a50000;fill-opacity:1;stroke:#61781b;stroke-width:50;stroke-linecap:round;stroke-linejoin:round;stroke-miterlimit:10;stroke-opacity:1" />
        <path
           inkscape:connector-curvature="0"
           class="st1"
           d="m 748,377.3 h 429.5 V 738.6 H 748 Z"
           id="path6248"
           style="fill:#a50000;fill-opacity:1;stroke:#61781b;stroke-width:50;stroke-linecap:round;stroke-linejoin:round;stroke-miterlimit:10;stroke-opacity:1" />
        <path
           inkscape:connector-curvature="0"
           class="st1"
           d="M 1090.5,598.8 H 835.1 c 0,0 47.1,-50.7 47.1,-128.4 0,-77.7 80.6,-80.6 80.6,-80.6 0,0 80.6,2.9 80.6,80.6 0,77.7 47.1,128.4 47.1,128.4 z"
           id="path6250"
           style="fill:#a50000;fill-opacity:1;stroke:#61781b;stroke-width:50;stroke-linecap:round;stroke-linejoin:round;stroke-miterlimit:10;stroke-opacity:1" />
        <path
           inkscape:connector-curvature="0"
           class="st1"
           d="m 996.6,636.9 c 0,18.7 -15.1,33.8 -33.8,33.8 -18.7,0 -33.8,-15.1 -33.8,-33.8 0,-9.7 9.1,-25.3 17.8,-38.1 h 31.9 c 8.8,12.8 17.9,28.4 17.9,38.1 z"
           id="path6252"
           style="fill:#a50000;fill-opacity:1;stroke:#61781b;stroke-width:50;stroke-linecap:round;stroke-linejoin:round;stroke-miterlimit:10;stroke-opacity:1" />
        <path
           inkscape:connector-curvature="0"
           class="st1"
           d="m 1549.2,997 v 706.1 H 376.4 V 997 h 285.9 v 84.9 h 601 V 997 Z"
           id="path6254"
           style="fill:#a50000;fill-opacity:1;stroke:#61781b;stroke-width:50;stroke-linecap:round;stroke-linejoin:round;stroke-miterlimit:10;stroke-opacity:1" />
        <path
           inkscape:connector-curvature="0"
           class="st1"
           d="m 662.3,898.8 h 601 v 183.1 h -601 z"
           id="path6256"
           style="fill:#a50000;fill-opacity:1;stroke:#61781b;stroke-width:50;stroke-linecap:round;stroke-linejoin:round;stroke-miterlimit:10;stroke-opacity:1" />
        <path
           inkscape:connector-curvature="0"
           class="st1"
           d="M 1042.2,1703.1 H 883.4 v -175.6 c 0,-43.9 35.6,-79.4 79.4,-79.4 43.9,0 79.4,35.6 79.4,79.4 z"
           id="path6258"
           style="fill:#a50000;fill-opacity:1;stroke:#61781b;stroke-width:50;stroke-linecap:round;stroke-linejoin:round;stroke-miterlimit:10;stroke-opacity:1" />
        <path
           inkscape:connector-curvature="0"
           class="st1"
           d="m 482.6,1194.8 h 100.2 v 140.3 H 482.6 Z"
           id="path6260"
           style="fill:#a50000;fill-opacity:1;stroke:#61781b;stroke-width:50;stroke-linecap:round;stroke-linejoin:round;stroke-miterlimit:10;stroke-opacity:1" />
        <path
           inkscape:connector-curvature="0"
           class="st1"
           d="m 655,1194.8 h 100.2 v 140.3 H 655 Z"
           id="path6262"
           style="fill:#a50000;fill-opacity:1;stroke:#61781b;stroke-width:50;stroke-linecap:round;stroke-linejoin:round;stroke-miterlimit:10;stroke-opacity:1" />
        <path
           inkscape:connector-curvature="0"
           class="st1"
           d="m 827.4,1194.8 h 100.2 v 140.3 H 827.4 Z"
           id="path6264"
           style="fill:#a50000;fill-opacity:1;stroke:#61781b;stroke-width:50;stroke-linecap:round;stroke-linejoin:round;stroke-miterlimit:10;stroke-opacity:1" />
        <path
           inkscape:connector-curvature="0"
           class="st1"
           d="m 999.7,1194.8 h 100.2 v 140.3 H 999.7 Z"
           id="path6266"
           style="fill:#a50000;fill-opacity:1;stroke:#61781b;stroke-width:50;stroke-linecap:round;stroke-linejoin:round;stroke-miterlimit:10;stroke-opacity:1" />
        <path
           inkscape:connector-curvature="0"
           class="st1"
           d="m 1172.1,1194.8 h 100.2 v 140.3 h -100.2 z"
           id="path6268"
           style="fill:#a50000;fill-opacity:1;stroke:#61781b;stroke-width:50;stroke-linecap:round;stroke-linejoin:round;stroke-miterlimit:10;stroke-opacity:1" />
        <path
           inkscape:connector-curvature="0"
           class="st1"
           d="m 1344.5,1194.8 h 100.2 v 140.3 h -100.2 z"
           id="path6270"
           style="fill:#a50000;fill-opacity:1;stroke:#61781b;stroke-width:50;stroke-linecap:round;stroke-linejoin:round;stroke-miterlimit:10;stroke-opacity:1" />
        <path
           inkscape:connector-curvature="0"
           class="st1"
           d="m 482.6,1422.6 h 100.2 v 140.3 H 482.6 Z"
           id="path6272"
           style="fill:#a50000;fill-opacity:1;stroke:#61781b;stroke-width:50;stroke-linecap:round;stroke-linejoin:round;stroke-miterlimit:10;stroke-opacity:1" />
        <path
           inkscape:connector-curvature="0"
           class="st1"
           d="m 655,1422.6 h 100.2 v 140.3 H 655 Z"
           id="path6274"
           style="fill:#a50000;fill-opacity:1;stroke:#61781b;stroke-width:50;stroke-linecap:round;stroke-linejoin:round;stroke-miterlimit:10;stroke-opacity:1" />
        <path
           inkscape:connector-curvature="0"
           class="st1"
           d="m 1172.1,1422.6 h 100.2 v 140.3 h -100.2 z"
           id="path6276"
           style="fill:#a50000;fill-opacity:1;stroke:#61781b;stroke-width:50;stroke-linecap:round;stroke-linejoin:round;stroke-miterlimit:10;stroke-opacity:1" />
        <path
           inkscape:connector-curvature="0"
           class="st1"
           d="m 1344.5,1422.6 h 100.2 v 140.3 h -100.2 z"
           id="path6278"
           style="fill:#a50000;fill-opacity:1;stroke:#61781b;stroke-width:50;stroke-linecap:round;stroke-linejoin:round;stroke-miterlimit:10;stroke-opacity:1" />
      </g>
    </g>
    <text
       id="text7527"
       y="146.44061"
       x="-2711.1526"
       style="font-style:normal;font-weight:normal;font-size:40px;line-height:74.116539px;font-family:sans-serif;letter-spacing:0px;word-spacing:0px;fill:#000000;fill-opacity:1;stroke:none"
       xml:space="preserve"><tspan
         style="font-size:192px"
         y="146.44061"
         x="-2711.1526"
         id="tspan7525"
         sodipodi:role="line"> Escuela </tspan><tspan
         id="tspan7529"
         style="font-size:192px"
         y="264.23135"
         x="-2711.1526"
         sodipodi:role="line">Provincial</tspan></text>
  </g>
</svg>
