<?xml version="1.0" encoding="UTF-8" standalone="no"?>
<svg
   xmlns:dc="http://purl.org/dc/elements/1.1/"
   xmlns:cc="http://creativecommons.org/ns#"
   xmlns:rdf="http://www.w3.org/1999/02/22-rdf-syntax-ns#"
   xmlns:svg="http://www.w3.org/2000/svg"
   xmlns="http://www.w3.org/2000/svg"
   xmlns:sodipodi="http://sodipodi.sourceforge.net/DTD/sodipodi-0.dtd"
   xmlns:inkscape="http://www.inkscape.org/namespaces/inkscape"
   version="1.0"
   width="37.010944pt"
   height="29.893869pt"
   viewBox="0 0 37.010945 29.893869"
   preserveAspectRatio="xMidYMid meet"
   id="svg5207"
   sodipodi:docname="suelo_consolidado.svg"
   inkscape:version="0.92.1 r15371">
  <metadata
     id="metadata5213">
    <rdf:RDF>
      <cc:Work
         rdf:about="">
        <dc:format>image/svg+xml</dc:format>
        <dc:type
           rdf:resource="http://purl.org/dc/dcmitype/StillImage" />
        <dc:title></dc:title>
      </cc:Work>
    </rdf:RDF>
  </metadata>
  <defs
     id="defs5211" />
  <sodipodi:namedview
     pagecolor="#ffffff"
     bordercolor="#666666"
     borderopacity="1"
     objecttolerance="10"
     gridtolerance="10"
     guidetolerance="10"
     inkscape:pageopacity="0"
     inkscape:pageshadow="2"
     inkscape:window-width="1366"
     inkscape:window-height="705"
     id="namedview5209"
     showgrid="false"
     fit-margin-top="0"
     fit-margin-left="0"
     fit-margin-right="0"
     fit-margin-bottom="0"
     inkscape:zoom="0.184375"
     inkscape:cx="-70.805611"
     inkscape:cy="-600.02863"
     inkscape:window-x="-8"
     inkscape:window-y="-8"
     inkscape:window-maximized="1"
     inkscape:current-layer="svg5207" />
  <g
     transform="matrix(0.00306246,0,0,-0.00344455,-0.98265949,33.064763)"
     id="g5205"
     style="fill:#6a6300;fill-opacity:0.94444442;stroke:none">
    <path
       d="m 1455,9578 c -16,-11 -53,-30 -81,-43 -68,-31 -119,-93 -145,-175 -22,-71 -27,-179 -11,-245 13,-53 134,-382 172,-465 16,-36 48,-110 71,-165 22,-55 54,-122 69,-150 16,-27 47,-106 70,-175 85,-253 149,-374 229,-437 25,-20 64,-53 86,-73 83,-76 163,-116 280,-143 61,-14 127,-28 148,-32 21,-3 77,-21 125,-40 146,-56 352,-78 512,-55 36,5 178,14 315,20 138,5 318,19 400,30 299,39 425,51 621,59 233,10 260,18 451,124 65,36 145,78 178,95 76,38 204,129 275,196 30,29 92,76 137,105 82,52 188,155 243,236 33,49 118,300 130,387 6,39 6,104 -1,173 -14,156 -35,198 -162,322 -56,55 -122,112 -147,126 -223,128 -841,236 -1575,276 -604,34 -812,48 -878,61 -28,6 -339,10 -765,9 -701,0 -718,-1 -747,-21 z"
       id="path5191"
       style="fill:#6a6300;fill-opacity:0.94444442"
       inkscape:connector-curvature="0" />
    <path
       d="m 9885,8674 c -11,-3 -83,-18 -160,-34 -77,-16 -194,-34 -260,-39 -167,-15 -236,-37 -385,-126 -38,-22 -79,-37 -130,-45 -41,-7 -127,-23 -190,-37 -99,-21 -146,-25 -335,-27 -189,-3 -237,-7 -338,-28 -95,-20 -127,-32 -165,-59 -26,-18 -83,-57 -127,-87 -44,-29 -92,-65 -107,-79 -47,-45 -86,-164 -99,-299 -6,-66 -17,-136 -25,-157 -19,-51 -18,-81 7,-130 45,-88 142,-188 269,-279 25,-17 65,-49 90,-69 54,-45 117,-74 267,-123 133,-43 180,-45 362,-16 101,16 216,22 586,31 253,6 528,13 612,16 151,4 153,4 240,-28 171,-61 209,-71 308,-80 55,-5 145,-16 200,-24 55,-7 136,-16 180,-20 101,-7 326,-31 470,-50 104,-14 114,-14 190,5 44,11 102,20 128,20 67,0 229,45 300,82 32,17 78,49 103,71 34,30 61,43 120,58 122,30 199,73 280,155 83,84 100,116 120,225 15,80 15,82 -10,163 -14,45 -29,115 -32,155 -8,78 -5,73 -121,218 -57,71 -94,104 -263,234 -106,82 -114,86 -181,94 -30,4 -96,15 -148,26 -86,18 -97,23 -135,63 -33,33 -55,46 -97,56 -30,7 -85,26 -124,42 -53,22 -96,31 -179,38 -59,5 -127,12 -150,15 -22,2 -129,10 -236,16 -394,21 -486,29 -550,43 -60,14 -235,20 -285,10 z"
       id="path5193"
       style="fill:#6a6300;fill-opacity:0.94444442"
       inkscape:connector-curvature="0" />
    <path
       d="m 4435,7101 c -54,-32 -138,-136 -202,-248 -79,-140 -100,-213 -122,-433 -6,-61 -24,-143 -51,-230 -50,-160 -54,-229 -23,-410 11,-63 18,-137 15,-164 -5,-60 9,-128 49,-231 16,-43 39,-121 50,-174 12,-53 34,-121 49,-151 34,-67 136,-168 207,-204 48,-24 62,-26 175,-26 68,0 163,7 213,16 126,22 229,4 325,-57 25,-16 66,-35 90,-44 25,-9 54,-24 65,-34 43,-39 82,-51 169,-51 47,0 116,-7 155,-15 38,-8 136,-17 218,-21 139,-6 154,-5 246,19 53,15 139,31 190,37 185,21 244,32 367,67 69,19 132,39 142,44 9,5 92,31 184,59 178,54 319,116 361,159 44,46 123,258 123,331 0,21 -9,68 -21,104 -17,57 -32,80 -97,151 -43,47 -100,121 -126,166 -35,58 -85,118 -176,209 -140,141 -190,174 -285,185 -146,16 -282,36 -348,52 -82,18 -180,22 -282,9 -66,-8 -75,-7 -146,23 -127,53 -252,142 -394,280 -160,156 -352,321 -446,383 -44,29 -104,57 -158,74 -47,15 -163,53 -256,85 -94,33 -184,59 -200,59 -17,0 -44,-8 -60,-19 z"
       id="path5195"
       style="fill:#6a6300;fill-opacity:0.94444442"
       inkscape:connector-curvature="0" />
    <path
       d="m 9350,6261 c -25,-10 -74,-38 -110,-63 -36,-26 -130,-78 -210,-116 -105,-50 -179,-95 -266,-160 -128,-96 -340,-302 -384,-375 -39,-63 -145,-337 -190,-492 l -40,-137 15,-111 c 13,-94 23,-127 60,-202 67,-138 97,-179 162,-222 106,-71 285,-160 338,-168 28,-3 77,-13 110,-21 33,-7 166,-23 295,-35 196,-18 313,-22 710,-24 261,-1 518,-5 570,-10 78,-6 103,-4 140,10 25,9 70,23 100,31 193,50 252,76 405,181 146,101 205,158 287,276 35,50 91,122 126,159 99,108 150,240 131,341 -4,23 -17,69 -29,102 -20,53 -37,75 -159,194 -75,74 -174,159 -221,190 -47,32 -105,72 -130,90 -35,24 -65,35 -126,45 -107,17 -201,66 -221,116 -8,19 -32,58 -52,85 -20,28 -47,67 -60,88 -40,66 -61,71 -261,63 -96,-4 -185,-8 -197,-8 -12,0 -82,28 -155,62 -195,92 -254,110 -388,121 -161,12 -199,11 -250,-10 z"
       id="path5197"
       style="fill:#6a6300;fill-opacity:0.94444442"
       inkscape:connector-curvature="0" />
    <path
       d="m 2115,3560 c -27,-4 -68,-15 -90,-23 -22,-9 -59,-21 -83,-27 -68,-18 -281,-123 -350,-174 -34,-26 -112,-97 -172,-159 C 1159,2909 1097,2848 960,2724 741,2526 703,2497 590,2441 463,2380 358,2303 336,2256 c -20,-43 -20,-123 -1,-216 21,-98 32,-116 136,-214 147,-138 217,-165 559,-212 187,-26 363,-24 500,7 124,28 288,32 520,11 161,-15 434,-4 565,23 39,8 99,17 135,20 40,4 82,16 110,30 25,14 86,45 135,71 146,75 223,131 271,197 24,32 44,65 44,72 0,6 13,30 29,52 63,87 80,135 101,294 15,109 6,143 -61,234 -28,39 -69,107 -91,153 -50,103 -118,179 -200,222 -89,47 -308,194 -403,271 -44,35 -108,82 -143,104 -34,22 -84,55 -110,72 -73,51 -219,123 -244,122 -13,-1 -45,-5 -73,-9 z"
       id="path5199"
       style="fill:#6a6300;fill-opacity:0.94444442"
       inkscape:connector-curvature="0" />
    <path
       d="m 6190,3561 c -48,-15 -95,-44 -160,-96 -36,-28 -91,-71 -123,-94 -52,-38 -231,-236 -301,-335 -17,-23 -50,-68 -74,-101 -25,-33 -58,-87 -73,-120 -28,-58 -32,-63 -126,-115 -77,-42 -120,-76 -199,-155 l -102,-100 -32,-105 c -18,-58 -47,-137 -65,-176 -42,-92 -75,-335 -55,-412 18,-74 122,-281 174,-347 88,-113 259,-278 324,-315 34,-19 88,-52 120,-72 34,-23 69,-38 88,-38 18,0 72,-12 120,-27 128,-38 273,-43 380,-13 57,16 111,23 194,24 100,2 127,7 204,34 51,18 137,38 205,47 149,21 251,41 326,65 33,11 105,27 160,36 59,9 133,30 180,50 88,37 208,79 270,95 22,6 53,19 70,29 36,22 198,188 215,220 9,16 10,51 5,124 l -7,101 -85,89 -84,90 8,55 c 16,116 -6,310 -44,391 -20,41 -55,82 -137,160 -61,58 -131,127 -156,154 -125,137 -246,244 -437,390 -35,26 -102,81 -150,123 -96,83 -159,126 -245,167 -32,15 -93,52 -135,83 -128,92 -189,115 -253,94 z"
       id="path5201"
       style="fill:#6a6300;fill-opacity:0.94444442"
       inkscape:connector-curvature="0" />
    <path
       d="m 10065,3535 c -60,-13 -128,-24 -151,-24 -22,-1 -76,-10 -120,-22 -78,-20 -117,-33 -309,-104 -55,-20 -147,-50 -204,-66 -135,-39 -236,-86 -335,-157 -45,-32 -109,-77 -142,-101 -70,-48 -110,-99 -159,-203 -57,-119 -57,-247 -1,-363 14,-27 27,-71 31,-97 16,-118 111,-249 358,-488 83,-80 200,-194 261,-254 61,-59 138,-127 171,-149 33,-22 76,-53 95,-68 24,-19 75,-39 160,-63 142,-39 191,-56 246,-84 21,-11 113,-45 204,-76 93,-32 187,-71 216,-90 128,-85 197,-99 389,-75 61,8 158,13 217,11 129,-4 173,6 360,82 142,57 181,64 276,51 l 53,-8 73,69 c 40,38 85,79 99,92 20,18 31,44 47,120 12,53 31,129 42,167 51,175 57,204 57,273 1,85 -42,292 -70,338 -14,23 -19,50 -19,98 v 66 l -124,123 c -101,98 -137,142 -188,227 -78,129 -200,279 -349,430 l -114,115 -244,120 -243,120 h -172 c -94,1 -200,4 -236,7 -49,5 -92,1 -175,-17 z"
       id="path5203"
       style="fill:#6a6300;fill-opacity:0.94444442"
       inkscape:connector-curvature="0" />
  </g>
</svg>
